HIERARCHY
ROOT hip
{
	OFFSET 0.000000 0.000000 0.000000
	CHANNELS 6 Xposition Yposition Zposition Xrotation Zrotation Yrotation 
	JOINT abdomen
	{
		OFFSET 0.000000 3.422050 0.000000
		CHANNELS 3 Xrotation Zrotation Yrotation 
		JOINT chest
		{
			OFFSET 0.000000 8.486693 -0.684411
			CHANNELS 3 Xrotation Zrotation Yrotation 
			JOINT neck
			{
				OFFSET 0.000000 10.266162 -0.273764
				CHANNELS 3 Xrotation Zrotation Yrotation 
				JOINT head
				{
					OFFSET 0.000000 3.148285 0.000000
					CHANNELS 3 Xrotation Zrotation Yrotation 
					End Site
					{
						OFFSET 0.000000 3.148289 0.000000
					}
				}
			}
			JOINT lCollar
			{
				OFFSET 3.422053 6.707223 -0.821293
				CHANNELS 3 Yrotation Zrotation Xrotation 
				JOINT lShldr
				{
					OFFSET 3.285171 0.000000 0.000000
					CHANNELS 3 Zrotation Yrotation Xrotation 
					JOINT lForeArm
					{
						OFFSET 10.129278 0.000000 0.000000
						CHANNELS 3 Yrotation Zrotation Xrotation 
						JOINT lHand
						{
							OFFSET 8.486692 0.000000 0.000000
							CHANNELS 3 Zrotation Yrotation Xrotation 
							End Site
							{
								OFFSET 4.106464 0.000000 0.000000
							}
						}
					}
				}
			}
			JOINT rCollar
			{
				OFFSET -3.558935 6.707223 -0.821293
				CHANNELS 3 Yrotation Zrotation Xrotation 
				JOINT rShldr
				{
					OFFSET -3.148289 0.000000 0.000000
					CHANNELS 3 Zrotation Yrotation Xrotation 
					JOINT rForeArm
					{
						OFFSET -10.266159 0.000000 0.000000
						CHANNELS 3 Yrotation Zrotation Xrotation 
						JOINT rHand
						{
							OFFSET -8.349810 0.000000 0.000000
							CHANNELS 3 Zrotation Yrotation Xrotation 
							End Site
							{
								OFFSET -4.106464 0.000000 0.000000
							}
						}
					}
				}
			}
		}
	}
	JOINT lThigh
	{
		OFFSET 5.338403 -1.642589 1.368821
		CHANNELS 3 Xrotation Zrotation Yrotation 
		JOINT lShin
		{
			OFFSET -2.053232 -20.121670 0.000000
			CHANNELS 3 Xrotation Zrotation Yrotation 
			JOINT lFoot
			{
				OFFSET 0.000000 -19.300380 -1.231939
				CHANNELS 3 Xrotation Yrotation Zrotation 
				End Site
				{
					OFFSET 0.000000 -2.463878 4.653993
				}
			}
		}
	}
	JOINT rThigh
	{
		OFFSET -5.338403 -1.642589 1.368821
		CHANNELS 3 Xrotation Zrotation Yrotation 
		JOINT rShin
		{
			OFFSET 2.053232 -20.121670 0.000000
			CHANNELS 3 Xrotation Zrotation Yrotation 
			JOINT rFoot
			{
				OFFSET 0.000000 -19.300380 -1.231939
				CHANNELS 3 Xrotation Yrotation Zrotation 
				End Site
				{
					OFFSET 0.000000 -2.463878 4.653993
				}
			}
		}
	}
}
MOTION
Frames: 16
Frame Time: 0.033325
0.000000 43.528500 0.000000 0.000000 0.000000 0.000000 0.000000 0.000000 0.000000 0.000000 0.000000 0.000000 0.000000 0.000000 0.000000 0.000000 0.000000 0.000000 0.000000 0.000000 0.000000 0.000000 0.000000 0.000000 0.000000 0.000000 0.000000 0.000000 0.000000 0.000000 0.000000 0.000000 0.000000 0.000000 0.000000 0.000000 0.000000 0.000000 0.000000 0.000000 0.000000 0.000000 0.000000 0.000000 0.000000 0.000000 0.000000 0.000000 0.000000 0.000000 0.000000 0.000000 0.000000 0.000000 0.000000 0.000000 0.000000 0.000000 0.000000 0.000000 
-12.138111 13.620281 -0.561709 0.000000 0.000000 0.000000 14.645524 -0.029608 -0.030248 25.094334 -0.106002 -0.046879 0.267527 0.267524 0.000625 0.375931 0.000000 0.000000 -37.023296 -29.744200 -9.612916 -21.663063 -28.914759 7.431259 -11.130760 -6.365574 -0.027932 19.497721 -0.292930 0.001118 37.800072 28.994776 -10.093474 21.372126 28.921804 7.438811 7.425784 8.581702 -0.162581 -22.499636 0.290791 0.000991 -51.053371 6.104117 -0.001257 145.193680 5.531421 -0.735253 56.309616 8.205308 3.192663 -51.053402 -6.108787 -0.000392 145.193466 -5.529124 0.730874 56.309589 -8.210064 -3.194125 
-12.138111 13.620281 -0.561709 0.000000 0.000000 0.000000 14.645522 -0.029608 -0.030248 25.094332 -0.106002 -0.046879 0.536424 0.536628 -0.021730 0.753476 0.000000 0.000000 -37.023296 -29.744200 -9.612916 -21.663061 -28.914757 7.431259 -11.130758 -6.365573 -0.027932 19.497721 -0.292930 0.001118 37.800068 28.994772 -10.093472 21.372126 28.921804 7.438811 7.425784 8.581702 -0.162581 -22.499636 0.290791 0.000991 -51.053371 6.104116 -0.001257 145.193680 5.531421 -0.735253 56.309616 8.205308 3.192663 -51.053402 -6.108787 -0.000392 145.193466 -5.529124 0.730874 56.309589 -8.210064 -3.194125 
-12.138111 13.620281 -0.561709 0.000000 0.000000 0.000000 14.645524 -0.029608 -0.030248 25.094334 -0.106002 -0.046879 0.805333 0.805935 -0.042831 1.131162 0.000000 0.000000 -37.023289 -29.744198 -9.612915 -21.663063 -28.914759 7.431259 -11.130760 -6.365574 -0.027932 19.497719 -0.292930 0.001118 37.800064 28.994776 -10.093473 21.372124 28.921804 7.438810 7.425784 8.581702 -0.162581 -22.499636 0.290791 0.000991 -51.053371 6.104117 -0.001257 145.193665 5.531420 -0.735253 56.309616 8.205308 3.192663 -51.053402 -6.108786 -0.000392 145.193451 -5.529124 0.730874 56.309589 -8.210064 -3.194125 
-12.138111 13.620281 -0.561709 0.000000 0.000000 0.000000 14.645524 -0.029608 -0.030248 25.094334 -0.106002 -0.046879 1.074258 1.075433 -0.062675 1.508978 0.000000 0.000000 -37.023296 -29.744200 -9.612916 -21.663063 -28.914759 7.431260 -11.130760 -6.365574 -0.027932 19.497721 -0.292930 0.001118 37.800072 28.994778 -10.093474 21.372126 28.921804 7.438811 7.425784 8.581702 -0.162581 -22.499636 0.290791 0.000991 -51.053379 6.104117 -0.001257 145.193680 5.531421 -0.735253 56.309620 8.205309 3.192663 -51.053410 -6.108787 -0.000392 145.193466 -5.529124 0.730874 56.309593 -8.210065 -3.194125 
-12.138111 13.620281 -0.561709 0.000000 0.000000 0.000000 14.645524 -0.029608 -0.030248 25.094334 -0.106002 -0.046879 1.343207 1.345112 -0.081262 1.886919 0.000000 0.000000 -37.023296 -29.744200 -9.612916 -21.663065 -28.914759 7.431260 -11.130760 -6.365574 -0.027932 19.497723 -0.292930 0.001118 37.800072 28.994776 -10.093474 21.372126 28.921804 7.438811 7.425784 8.581702 -0.162581 -22.499636 0.290791 0.000991 -51.053371 6.104117 -0.001257 145.193680 5.531421 -0.735253 56.309616 8.205308 3.192663 -51.053402 -6.108787 -0.000392 145.193466 -5.529124 0.730874 56.309589 -8.210064 -3.194125 
-12.138111 13.620281 -0.561709 0.000000 0.000000 0.000000 14.645524 -0.029608 -0.030248 25.094334 -0.106002 -0.046879 1.612184 1.614959 -0.098590 2.264974 0.000000 0.000000 -37.023296 -29.744200 -9.612916 -21.663063 -28.914759 7.431259 -11.130760 -6.365574 -0.027932 19.497721 -0.292930 0.001118 37.800072 28.994776 -10.093474 21.372126 28.921804 7.438811 7.425784 8.581702 -0.162581 -22.499636 0.290791 0.000991 -51.053371 6.104117 -0.001257 145.193680 5.531421 -0.735253 56.309616 8.205308 3.192663 -51.053402 -6.108787 -0.000392 145.193466 -5.529124 0.730874 56.309589 -8.210064 -3.194125 
-12.138111 13.620281 -0.561709 0.000000 0.000000 0.000000 14.645524 -0.029608 -0.030248 25.094334 -0.106002 -0.046879 1.881196 1.884963 -0.114657 2.643138 0.000000 0.000000 -37.023289 -29.744198 -9.612915 -21.663061 -28.914757 7.431259 -11.130760 -6.365574 -0.027932 19.497721 -0.292930 0.001118 37.800072 28.994776 -10.093474 21.372126 28.921804 7.438811 7.425784 8.581701 -0.162581 -22.499636 0.290791 0.000991 -51.053371 6.104116 -0.001257 145.193680 5.531421 -0.735253 56.309616 8.205308 3.192664 -51.053402 -6.108786 -0.000392 145.193466 -5.529124 0.730874 56.309586 -8.210064 -3.194125 
-12.138111 13.620281 -0.561709 0.000000 0.000000 0.000000 14.645524 -0.029608 -0.030248 25.094336 -0.106002 -0.046879 2.150249 2.155110 -0.129462 3.021400 0.000000 0.000000 -37.023296 -29.744200 -9.612916 -21.663065 -28.914759 7.431260 -11.130760 -6.365574 -0.027932 19.497721 -0.292930 0.001118 37.800072 28.994776 -10.093474 21.372126 28.921804 7.438811 7.425784 8.581701 -0.162581 -22.499636 0.290791 0.000991 -51.053371 6.104116 -0.001258 145.193680 5.531421 -0.735253 56.309612 8.205308 3.192663 -51.053402 -6.108787 -0.000392 145.193466 -5.529124 0.730874 56.309589 -8.210064 -3.194125 
-12.138111 13.620281 -0.561709 0.000000 0.000000 0.000000 14.645524 -0.029608 -0.030248 25.094334 -0.106002 -0.046879 2.419349 2.425391 -0.143003 3.399754 0.000000 0.000000 -37.023296 -29.744200 -9.612916 -21.663063 -28.914759 7.431259 -11.130761 -6.365574 -0.027932 19.497721 -0.292930 0.001118 37.800072 28.994776 -10.093474 21.372126 28.921804 7.438811 7.425784 8.581703 -0.162581 -22.499636 0.290791 0.000991 -51.053371 6.104117 -0.001257 145.193680 5.531421 -0.735253 56.309616 8.205308 3.192664 -51.053406 -6.108787 -0.000392 145.193466 -5.529124 0.730874 56.309589 -8.210064 -3.194125 
-12.138111 13.620281 -0.561709 0.000000 0.000000 0.000000 14.645524 -0.029608 -0.030248 25.094334 -0.106002 -0.046879 2.688500 2.695792 -0.155278 3.778189 0.000000 0.000000 -37.023296 -29.744200 -9.612916 -21.663065 -28.914759 7.431260 -11.130760 -6.365574 -0.027932 19.497721 -0.292930 0.001118 37.800072 28.994776 -10.093474 21.372126 28.921804 7.438811 7.425784 8.581702 -0.162581 -22.499636 0.290791 0.000991 -51.053371 6.104117 -0.001257 145.193665 5.531421 -0.735253 56.309616 8.205308 3.192663 -51.053402 -6.108787 -0.000392 145.193466 -5.529124 0.730874 56.309589 -8.210064 -3.194125 
-12.138111 13.620281 -0.561709 0.000000 0.000000 0.000000 14.645524 -0.029608 -0.030248 25.094334 -0.106002 -0.046879 2.957712 2.966303 -0.166286 4.156699 0.000000 0.000000 -37.023296 -29.744200 -9.612916 -21.663063 -28.914759 7.431259 -11.130759 -6.365574 -0.027932 19.497719 -0.292930 0.001118 37.800072 28.994776 -10.093474 21.372124 28.921804 7.438810 7.425784 8.581702 -0.162581 -22.499636 0.290791 0.000991 -51.053371 6.104117 -0.001257 145.193680 5.531421 -0.735253 56.309616 8.205308 3.192663 -51.053402 -6.108787 -0.000392 145.193466 -5.529124 0.730874 56.309586 -8.210064 -3.194125 
-12.138111 13.620281 -0.561709 0.000000 0.000000 0.000000 14.645524 -0.029608 -0.030248 25.094332 -0.106002 -0.046879 3.226988 3.236910 -0.176026 4.535275 0.000000 0.000000 -37.023293 -29.744198 -9.612916 -21.663061 -28.914757 7.431259 -11.130759 -6.365573 -0.027932 19.497719 -0.292930 0.001118 37.800072 28.994776 -10.093474 21.372126 28.921804 7.438811 7.425784 8.581702 -0.162581 -22.499636 0.290791 0.000991 -51.053371 6.104116 -0.001257 145.193680 5.531421 -0.735253 56.309612 8.205308 3.192663 -51.053402 -6.108786 -0.000392 145.193466 -5.529124 0.730874 56.309589 -8.210064 -3.194125 
-12.138111 13.620281 -0.561709 0.000000 0.000000 0.000000 14.645524 -0.029608 -0.030248 25.094334 -0.106002 -0.046879 3.496335 3.507602 -0.184495 4.913909 0.000000 0.000000 -37.023296 -29.744200 -9.612916 -21.663065 -28.914759 7.431260 -11.130760 -6.365574 -0.027932 19.497723 -0.292930 0.001118 37.800072 28.994776 -10.093474 21.372126 28.921804 7.438811 7.425783 8.581701 -0.162581 -22.499636 0.290791 0.000991 -51.053368 6.104116 -0.001257 145.193665 5.531420 -0.735253 56.309612 8.205308 3.192663 -51.053402 -6.108787 -0.000392 145.193451 -5.529124 0.730874 56.309586 -8.210064 -3.194125 
-12.138111 13.620281 -0.561709 0.000000 0.000000 0.000000 14.645524 -0.029608 -0.030248 25.094334 -0.106002 -0.046879 3.765758 3.778367 -0.191692 5.292593 0.000000 0.000000 -37.023296 -29.744200 -9.612916 -21.663063 -28.914759 7.431259 -11.130760 -6.365574 -0.027932 19.497721 -0.292930 0.001118 37.800072 28.994776 -10.093474 21.372126 28.921804 7.438811 7.425784 8.581702 -0.162581 -22.499636 0.290791 0.000991 -51.053371 6.104117 -0.001257 145.193680 5.531421 -0.735253 56.309616 8.205308 3.192663 -51.053402 -6.108787 -0.000392 145.193466 -5.529124 0.730874 56.309589 -8.210065 -3.194125 
-12.138111 13.620281 -0.561709 0.000000 0.000000 0.000000 14.645524 -0.029608 -0.030248 25.094334 -0.106002 -0.046879 4.035265 4.049192 -0.197616 5.671318 0.000000 0.000000 -37.023296 -29.744200 -9.612916 -21.663063 -28.914759 7.431259 -11.130760 -6.365574 -0.027932 19.497721 -0.292930 0.001118 37.800068 28.994776 -10.093474 21.372126 28.921804 7.438811 7.425784 8.581702 -0.162581 -22.499636 0.290791 0.000991 -51.053371 6.104117 -0.001257 145.193680 5.531421 -0.735253 56.309620 8.205308 3.192663 -51.053402 -6.108787 -0.000392 145.193466 -5.529124 0.730874 56.309589 -8.210064 -3.194125 
